<svg xmlns="http://www.w3.org/2000/svg" xmlns:xlink="http://www.w3.org/1999/xlink" width="2000" zoomAndPan="magnify" viewBox="0 0 1500 1499.999933" height="2000" preserveAspectRatio="xMidYMid meet" version="1.0"><defs><g/></defs><g fill="#ffffff" fill-opacity="1"><g transform="translate(196.495841, 930.7499)"><g><path d="M 159.601562 -31.125 L 192.523438 -31.125 L 192.523438 25.125 L 10.875 25.125 L 10.875 -31.125 L 43.800781 -31.125 C 47.261719 -31.125 50.238281 -32.371094 52.734375 -34.867188 C 55.492188 -37.625 56.945312 -40.925781 57.09375 -44.765625 L 82.199219 -43.800781 L 57.074219 -43.800781 L 57.074219 -376.800781 L 82.199219 -376.800781 L 57.09375 -375.835938 C 56.949219 -379.542969 55.578125 -382.660156 52.980469 -385.191406 C 50.457031 -387.648438 47.394531 -388.875 43.800781 -388.875 L 10.875 -388.875 L 10.875 -445.125 L 192.523438 -445.125 L 192.523438 -388.875 L 159.601562 -388.875 C 156.003906 -388.875 152.945312 -387.648438 150.421875 -385.191406 C 147.820312 -382.660156 146.449219 -379.542969 146.304688 -375.835938 L 121.199219 -376.800781 L 146.324219 -376.800781 L 146.324219 -43.800781 C 146.324219 -40.46875 147.59375 -37.570312 150.128906 -35.101562 C 152.851562 -32.449219 156.007812 -31.125 159.601562 -31.125 Z M 159.601562 19.125 C 142.390625 19.125 127.550781 13.050781 115.074219 0.902344 C 102.40625 -11.429688 96.074219 -26.332031 96.074219 -43.800781 L 96.074219 -377.28125 L 96.09375 -377.765625 C 96.75 -394.855469 103.179688 -409.335938 115.378906 -421.207031 C 127.65625 -433.152344 142.394531 -439.125 159.601562 -439.125 L 167.398438 -439.125 L 167.398438 -414 L 142.273438 -414 L 142.273438 -420 L 167.398438 -420 L 167.398438 -394.875 L 36 -394.875 L 36 -420 L 61.125 -420 L 61.125 -414 L 36 -414 L 36 -439.125 L 43.800781 -439.125 C 61.003906 -439.125 75.746094 -433.152344 88.019531 -421.207031 C 100.21875 -409.335938 106.648438 -394.855469 107.304688 -377.765625 L 107.324219 -377.28125 L 107.324219 -43.316406 L 107.304688 -42.835938 C 106.652344 -25.875 100.308594 -11.375 88.265625 0.667969 C 75.960938 12.972656 61.136719 19.125 43.800781 19.125 L 36 19.125 L 36 -6 L 61.125 -6 L 61.125 0 L 36 0 L 36 -25.125 L 167.398438 -25.125 L 167.398438 0 L 142.273438 0 L 142.273438 -6 L 167.398438 -6 L 167.398438 19.125 Z M 600.523438 90 L 600.523438 115.871094 L 581.191406 120.449219 C 564.085938 124.5 546.957031 126.523438 529.800781 126.523438 C 456.953125 126.523438 387.246094 91.082031 320.683594 20.199219 L 107.207031 -207.46875 L 262.355469 -402.0625 C 262.589844 -402.355469 262.757812 -402.582031 262.855469 -402.742188 C 262.808594 -402.664062 262.734375 -402.515625 262.640625 -402.304688 C 261.996094 -400.855469 261.675781 -399.15625 261.675781 -397.199219 C 261.675781 -396.445312 261.960938 -395.5 262.527344 -394.363281 L 285 -405.601562 L 262.832031 -393.777344 C 263.683594 -392.175781 264.976562 -390.929688 266.707031 -390.035156 C 267.269531 -389.742188 267.773438 -389.550781 268.21875 -389.457031 C 268.15625 -389.46875 267.949219 -389.476562 267.601562 -389.476562 L 236.476562 -389.476562 L 236.476562 -445.125 L 413.324219 -445.125 L 413.324219 -389.476562 L 385.800781 -389.476562 C 366.894531 -389.476562 351.539062 -382.871094 339.734375 -369.660156 L 200.191406 -208.550781 L 181.199219 -225 L 199.539062 -242.175781 L 403.539062 -24.375 C 428.152344 2.105469 455.785156 23.796875 486.433594 40.699219 C 515.65625 56.816406 545.3125 64.875 575.398438 64.875 L 600.523438 64.875 Z M 550.273438 90 L 575.398438 90 L 575.398438 115.125 C 536.6875 115.125 498.941406 104.984375 462.167969 84.699219 C 426.816406 65.203125 395.046875 40.296875 366.863281 9.976562 L 147.390625 -224.34375 L 302.265625 -403.140625 C 324.058594 -427.53125 351.90625 -439.726562 385.800781 -439.726562 L 388.199219 -439.726562 L 388.199219 -414.601562 L 363.074219 -414.601562 L 363.074219 -420 L 388.199219 -420 L 388.199219 -394.875 L 261.601562 -394.875 L 261.601562 -420 L 286.726562 -420 L 286.726562 -414.601562 L 261.601562 -414.601562 L 261.601562 -439.726562 L 267.601562 -439.726562 C 275.875 -439.726562 283.273438 -438.039062 289.792969 -434.667969 C 297.324219 -430.769531 303.117188 -425.023438 307.167969 -417.421875 L 307.324219 -417.132812 L 307.472656 -416.835938 C 310.441406 -410.898438 311.925781 -404.355469 311.925781 -397.199219 C 311.925781 -388.125 308.5 -379.304688 301.644531 -370.738281 L 160.046875 -193.136719 L 140.398438 -208.800781 L 158.726562 -225.984375 L 357.316406 -14.199219 C 413.953125 46.117188 471.449219 76.273438 529.800781 76.273438 C 543.042969 76.273438 556.3125 74.699219 569.609375 71.550781 L 575.398438 96 L 550.273438 96 Z M 550.273438 90 "/></g></g></g><g fill="#ffffff" fill-opacity="1"><g transform="translate(597.895176, 930.7499)"><g><path d="M 193.199219 -31.125 L 226.125 -31.125 L 226.125 25.125 L 44.476562 25.125 L 44.476562 -31.125 L 77.398438 -31.125 C 80.992188 -31.125 84.148438 -32.449219 86.871094 -35.101562 C 89.40625 -37.570312 90.675781 -40.46875 90.675781 -43.800781 L 90.675781 -403.800781 L 115.800781 -403.800781 L 117.207031 -378.714844 L 53.007812 -375.113281 C 37.730469 -374.207031 27.015625 -371.53125 20.867188 -367.085938 C 19.21875 -365.894531 18.050781 -364.597656 17.367188 -363.195312 C 16.539062 -361.496094 16.125 -359.230469 16.125 -356.398438 C 16.125 -352.136719 17.410156 -348.613281 19.980469 -345.820312 C 22.355469 -343.242188 27.738281 -341.730469 36.121094 -341.289062 L 59.925781 -340.039062 L 59.925781 -292.289062 L 40.0625 -288.03125 C 32.730469 -286.460938 25.375 -285.675781 18 -285.675781 C 5.035156 -285.675781 -6.589844 -288.402344 -16.871094 -293.851562 C -27.425781 -299.449219 -36.089844 -307.640625 -42.871094 -318.429688 C -50.640625 -330.378906 -54.523438 -343.632812 -54.523438 -358.199219 C -54.523438 -383.460938 -44.800781 -403.554688 -25.347656 -418.480469 C -8.722656 -431.238281 14.824219 -439.273438 45.289062 -442.578125 L 45.824219 -442.636719 L 106.0625 -446.570312 C 144.40625 -449.101562 174.464844 -452.46875 196.238281 -456.667969 L 220.742188 -461.398438 L 231.945312 -405.386719 L 206.238281 -401.203125 C 195.292969 -399.421875 188.230469 -396.582031 185.046875 -392.691406 C 181.632812 -388.515625 179.925781 -381.621094 179.925781 -372 L 179.925781 -43.800781 L 154.800781 -43.800781 L 179.90625 -44.765625 C 180.054688 -40.925781 181.507812 -37.625 184.265625 -34.867188 C 186.761719 -32.371094 189.738281 -31.125 193.199219 -31.125 Z M 193.199219 19.125 C 175.863281 19.125 161.039062 12.972656 148.734375 0.667969 C 136.691406 -11.375 130.347656 -25.875 129.695312 -42.835938 L 129.675781 -43.316406 L 129.675781 -372 C 129.675781 -393.578125 135.167969 -411.082031 146.15625 -424.511719 C 157.367188 -438.21875 174.707031 -446.980469 198.164062 -450.796875 L 202.199219 -426 L 177.5625 -421.074219 L 176.363281 -427.074219 L 201 -432 L 205.761719 -407.332031 C 181.933594 -402.730469 149.792969 -399.097656 109.335938 -396.429688 L 49.636719 -392.527344 L 48 -417.601562 L 50.710938 -392.621094 C 29.578125 -390.328125 14.421875 -385.660156 5.246094 -378.617188 C -1.101562 -373.746094 -4.273438 -366.941406 -4.273438 -358.199219 C -4.273438 -353.566406 -2.960938 -349.222656 -0.328125 -345.171875 C 1.691406 -341.957031 4.023438 -339.652344 6.671875 -338.246094 C 9.589844 -336.699219 13.367188 -335.925781 18 -335.925781 C 21.824219 -335.925781 25.671875 -336.339844 29.535156 -337.167969 L 34.800781 -312.601562 L 9.675781 -312.601562 L 9.675781 -316.199219 L 34.800781 -316.199219 L 33.480469 -291.109375 C 11.464844 -292.269531 -5.355469 -299.15625 -16.980469 -311.777344 C -28.410156 -324.1875 -34.125 -339.0625 -34.125 -356.398438 C -34.125 -366.96875 -32.015625 -376.578125 -27.792969 -385.230469 C -23.425781 -394.175781 -17.019531 -401.703125 -8.566406 -407.8125 C 5.484375 -417.96875 25.070312 -423.792969 50.191406 -425.285156 L 140.925781 -430.375 L 140.925781 -43.800781 C 140.925781 -26.332031 134.59375 -11.429688 121.925781 0.902344 C 109.449219 13.050781 94.609375 19.125 77.398438 19.125 L 69.601562 19.125 L 69.601562 -6 L 94.726562 -6 L 94.726562 0 L 69.601562 0 L 69.601562 -25.125 L 201 -25.125 L 201 0 L 175.875 0 L 175.875 -6 L 201 -6 L 201 19.125 Z M 193.199219 19.125 "/></g></g></g><g fill="#ffffff" fill-opacity="1"><g transform="translate(833.694811, 930.7499)"><g><path d="M 532.199219 -548.324219 L 567.523438 -548.324219 L 567.523438 -492.074219 L 542.398438 -492.074219 C 505.957031 -492.074219 477.433594 -480.40625 456.835938 -457.074219 C 435.429688 -432.820312 424.726562 -396.464844 424.726562 -348 L 424.726562 -148.199219 C 424.726562 -94.328125 407.390625 -50.523438 372.722656 -16.792969 C 338.246094 16.753906 293.003906 33.523438 237 33.523438 C 181.191406 33.523438 135.574219 16.96875 100.144531 -16.144531 C 64.230469 -49.710938 46.273438 -93.527344 46.273438 -147.601562 L 46.273438 -384.601562 C 46.273438 -385.730469 46.183594 -386.445312 46 -386.75 C 45.765625 -387.136719 45.0625 -387.644531 43.886719 -388.277344 L 55.800781 -410.398438 L 44.5625 -387.925781 C 43.300781 -388.558594 41.644531 -388.875 39.601562 -388.875 L 4.875 -388.875 L 4.875 -445.125 L 176.925781 -445.125 L 176.925781 -388.875 L 142.199219 -388.875 C 139.828125 -388.875 138.03125 -388.324219 136.808594 -387.226562 C 136 -386.5 135.5625 -385.425781 135.496094 -384.003906 L 110.398438 -385.199219 L 135.523438 -385.199219 L 135.523438 -156 C 135.523438 -118.71875 145.136719 -89.152344 164.363281 -67.296875 C 182.761719 -46.382812 207.171875 -35.925781 237.601562 -35.925781 C 270.902344 -35.925781 297.285156 -45.976562 316.75 -66.078125 C 336.433594 -86.40625 346.273438 -113.78125 346.273438 -148.199219 L 346.273438 -347.398438 C 346.273438 -413.238281 363.6875 -463.21875 398.515625 -497.347656 C 433.199219 -531.332031 477.761719 -548.324219 532.199219 -548.324219 Z M 532.199219 -498.074219 C 491.4375 -498.074219 458.601562 -485.867188 433.683594 -461.453125 C 408.910156 -437.179688 396.523438 -399.160156 396.523438 -347.398438 L 396.523438 -148.199219 C 396.523438 -100.21875 381.964844 -61.195312 352.851562 -31.121094 C 323.511719 -0.824219 285.097656 14.324219 237.601562 14.324219 C 192.027344 14.324219 155.039062 -1.816406 126.636719 -34.105469 C 99.0625 -65.449219 85.273438 -106.082031 85.273438 -156 L 85.273438 -385.796875 L 85.304688 -386.394531 C 86.035156 -401.773438 92 -414.5 103.191406 -424.574219 C 113.96875 -434.273438 126.972656 -439.125 142.199219 -439.125 L 151.800781 -439.125 L 151.800781 -414 L 126.675781 -414 L 126.675781 -420 L 151.800781 -420 L 151.800781 -394.875 L 30 -394.875 L 30 -420 L 55.125 -420 L 55.125 -414 L 30 -414 L 30 -439.125 L 39.601562 -439.125 C 49.554688 -439.125 58.699219 -437.039062 67.035156 -432.871094 L 67.375 -432.703125 L 67.710938 -432.523438 C 76.9375 -427.554688 84.035156 -420.964844 89 -412.75 C 94.015625 -404.453125 96.523438 -395.070312 96.523438 -384.601562 L 96.523438 -147.601562 C 96.523438 -108.070312 109.167969 -76.492188 134.457031 -52.855469 C 160.226562 -28.769531 194.410156 -16.726562 237 -16.726562 C 279.394531 -16.726562 312.957031 -28.753906 337.679688 -52.808594 C 362.210938 -76.675781 374.476562 -108.472656 374.476562 -148.199219 L 374.476562 -348 C 374.476562 -409.136719 389.371094 -456.578125 419.164062 -490.328125 C 449.765625 -524.992188 490.84375 -542.324219 542.398438 -542.324219 L 542.398438 -517.199219 L 517.273438 -517.199219 L 517.273438 -523.199219 L 542.398438 -523.199219 L 542.398438 -498.074219 Z M 532.199219 -498.074219 "/></g></g></g><g fill="#000000" fill-opacity="1"><g transform="translate(196.495841, 930.7499)"><g><path d="M 159.59375 -6 L 167.40625 -6 L 167.40625 0 L 36 0 L 36 -6 L 43.796875 -6 C 54.203125 -6 63.101562 -9.695312 70.5 -17.09375 C 77.894531 -24.5 81.796875 -33.398438 82.203125 -43.796875 L 82.203125 -376.796875 C 81.796875 -387.203125 77.894531 -396.003906 70.5 -403.203125 C 63.101562 -410.398438 54.203125 -414 43.796875 -414 L 36 -414 L 36 -420 L 167.40625 -420 L 167.40625 -414 L 159.59375 -414 C 149.195312 -414 140.296875 -410.398438 132.890625 -403.203125 C 125.492188 -396.003906 121.597656 -387.203125 121.203125 -376.796875 L 121.203125 -43.796875 C 121.203125 -33.398438 125 -24.5 132.59375 -17.09375 C 140.195312 -9.695312 149.195312 -6 159.59375 -6 Z M 575.40625 90 L 575.40625 96 C 560.195312 99.601562 544.992188 101.40625 529.796875 101.40625 C 464.203125 101.40625 400.601562 68.601562 339 3 L 140.40625 -208.796875 L 282 -386.40625 C 285.195312 -390.40625 286.796875 -394.003906 286.796875 -397.203125 C 286.796875 -400.398438 286.195312 -403.195312 285 -405.59375 C 281.800781 -411.59375 276 -414.59375 267.59375 -414.59375 L 261.59375 -414.59375 L 261.59375 -420 L 388.203125 -420 L 388.203125 -414.59375 L 385.796875 -414.59375 C 359.398438 -414.59375 337.800781 -405.195312 321 -386.40625 L 181.203125 -225 L 385.203125 -7.203125 C 411.597656 21.203125 441.296875 44.503906 474.296875 62.703125 C 507.296875 80.898438 541 90 575.40625 90 Z M 575.40625 90 "/></g></g></g><g fill="#000000" fill-opacity="1"><g transform="translate(597.895176, 930.7499)"><g><path d="M 193.1875 -6 L 201 -6 L 201 0 L 69.59375 0 L 69.59375 -6 L 77.390625 -6 C 87.796875 -6 96.796875 -9.695312 104.390625 -17.09375 C 111.992188 -24.5 115.796875 -33.398438 115.796875 -43.796875 L 115.796875 -403.796875 L 51.59375 -400.203125 C 11.195312 -397.796875 -9 -383.195312 -9 -356.40625 C -9 -345.601562 -5.5 -336.398438 1.5 -328.796875 C 8.5 -321.203125 19.597656 -317.003906 34.796875 -316.203125 L 34.796875 -312.59375 C 29.191406 -311.394531 23.59375 -310.796875 18 -310.796875 C 0.394531 -310.796875 -12.804688 -317.796875 -21.609375 -331.796875 C -26.804688 -339.796875 -29.40625 -348.597656 -29.40625 -358.203125 C -29.40625 -392.203125 -3.601562 -412 48 -417.59375 C 48.394531 -417.59375 68.289062 -418.894531 107.6875 -421.5 C 147.09375 -424.101562 178.195312 -427.601562 201 -432 L 202.1875 -426 C 184.988281 -423.195312 172.789062 -417.394531 165.59375 -408.59375 C 158.394531 -399.800781 154.796875 -387.601562 154.796875 -372 L 154.796875 -43.796875 C 155.191406 -33.398438 159.085938 -24.5 166.484375 -17.09375 C 173.890625 -9.695312 182.789062 -6 193.1875 -6 Z M 193.1875 -6 "/></g></g></g><g fill="#000000" fill-opacity="1"><g transform="translate(833.694811, 930.7499)"><g><path d="M 532.203125 -523.203125 C 535.398438 -523.203125 538.800781 -523.203125 542.40625 -523.203125 L 542.40625 -517.203125 C 498.40625 -517.203125 463.601562 -502.703125 438 -473.703125 C 412.394531 -444.703125 399.59375 -402.800781 399.59375 -348 L 399.59375 -148.203125 C 399.59375 -101.398438 384.789062 -63.597656 355.1875 -34.796875 C 325.59375 -5.992188 286.195312 8.40625 237 8.40625 C 187.800781 8.40625 147.898438 -5.894531 117.296875 -34.5 C 86.703125 -63.101562 71.40625 -100.800781 71.40625 -147.59375 L 71.40625 -384.59375 C 71.40625 -396.195312 66.203125 -404.800781 55.796875 -410.40625 C 50.992188 -412.800781 45.59375 -414 39.59375 -414 L 30 -414 L 30 -420 L 151.796875 -420 L 151.796875 -414 L 142.203125 -414 C 133.398438 -414 126 -411.296875 120 -405.890625 C 114 -400.492188 110.800781 -393.597656 110.40625 -385.203125 L 110.40625 -156 C 110.40625 -112.394531 122.101562 -77.289062 145.5 -50.6875 C 168.894531 -24.09375 199.59375 -10.796875 237.59375 -10.796875 C 278 -10.796875 310.398438 -23.394531 334.796875 -48.59375 C 359.203125 -73.800781 371.40625 -107.003906 371.40625 -148.203125 L 371.40625 -347.40625 C 371.40625 -406.195312 386.300781 -450.191406 416.09375 -479.390625 C 445.894531 -508.597656 484.597656 -523.203125 532.203125 -523.203125 Z M 532.203125 -523.203125 "/></g></g></g></svg>